<svg width="21" height="21" viewBox="0 0 21 21" fill="none" xmlns="http://www.w3.org/2000/svg">
<g clip-path="url(#clip0_1585_9512)">
<path d="M15.2236 5.14356C15.5471 5.14356 15.8096 4.88106 15.8096 4.55762V1.04199C15.8096 0.718555 15.5471 0.456055 15.2236 0.456055H11.708C9.44629 0.456055 7.60645 2.2959 7.60645 4.55762V7.48731H5.84863C5.5252 7.48731 5.2627 7.74981 5.2627 8.07324V11.5889C5.2627 11.9123 5.5252 12.1748 5.84863 12.1748H7.60645V19.8701C7.60645 20.1936 7.86895 20.4561 8.19238 20.4561H11.708C12.0314 20.4561 12.2939 20.1936 12.2939 19.8701V12.1748H14.6377C14.924 12.1748 15.1686 11.9678 15.2158 11.6854L15.8018 8.16973C15.8299 7.99981 15.7822 7.82598 15.6709 7.69434C15.5596 7.56309 15.3959 7.48731 15.2236 7.48731H12.2939V5.14356H15.2236ZM11.708 8.65918H14.5318L14.1412 11.0029H11.708C11.3846 11.0029 11.1221 11.2654 11.1221 11.5889V19.2842H8.77832V11.5889C8.77832 11.2654 8.51582 11.0029 8.19238 11.0029H6.43457V8.65918H8.19238C8.51582 8.65918 8.77832 8.39668 8.77832 8.07324V4.55762C8.77832 2.94238 10.0928 1.62793 11.708 1.62793H14.6377V3.97168H11.708C11.3846 3.97168 11.1221 4.23418 11.1221 4.55762V8.07324C11.1221 8.39668 11.3846 8.65918 11.708 8.65918Z" fill="#282525"/>
</g>
<defs>
<clipPath id="clip0_1585_9512">
<rect width="20" height="20" fill="white" transform="translate(0.536133 0.456055)"/>
</clipPath>
</defs>
</svg>
