<svg width="21" height="21" viewBox="0 0 21 21" fill="none" xmlns="http://www.w3.org/2000/svg">
<g clip-path="url(#clip0_1585_9518)">
<path d="M10.3755 20.456C10.3093 20.456 10.2431 20.456 10.1764 20.4557C8.60873 20.4595 7.16022 20.4197 5.75153 20.3339C4.46002 20.2553 3.28113 19.809 2.3421 19.0433C1.43603 18.3045 0.817291 17.3055 0.503113 16.0744C0.229675 15.0027 0.215179 13.9506 0.201294 12.933C0.191223 12.2028 0.180847 11.3377 0.178711 10.4578C0.180847 9.57435 0.191223 8.70917 0.201294 7.97904C0.215179 6.96158 0.229675 5.90949 0.503113 4.83756C0.817291 3.60648 1.43603 2.60749 2.3421 1.86866C3.28113 1.10297 4.46002 0.656652 5.75168 0.578069C7.16037 0.492467 8.60919 0.452489 10.1802 0.456304C11.7484 0.452947 13.1964 0.492467 14.6051 0.578069C15.8966 0.656652 17.0755 1.10297 18.0146 1.86866C18.9208 2.60749 19.5394 3.60648 19.8535 4.83756C20.127 5.90934 20.1415 6.96158 20.1554 7.97904C20.1654 8.70917 20.176 9.57435 20.1779 10.4542V10.4578C20.176 11.3377 20.1654 12.2028 20.1554 12.933C20.1415 13.9504 20.1271 15.0025 19.8535 16.0744C19.5394 17.3055 18.9208 18.3045 18.0146 19.0433C17.0755 19.809 15.8966 20.2553 14.6051 20.3339C13.2561 20.416 11.8703 20.456 10.3755 20.456ZM10.1764 19.217C11.7186 19.2206 13.1346 19.1816 14.5102 19.098C15.4868 19.0386 16.6387 18.398 17.3324 17.8324C17.9735 17.3095 18.4151 16.588 18.6448 15.6881C18.8724 14.7959 18.8856 13.838 18.8982 12.9116C18.9081 12.1863 18.9185 11.3273 18.9207 10.456C18.9185 9.58457 18.9081 8.72565 18.8982 8.0004C18.8856 7.07404 18.8724 6.11609 18.6448 5.22376C18.4151 4.3238 17.9735 3.60236 17.3324 3.07944C16.6387 2.51395 15.4868 1.89215 14.5102 1.83279C13.1346 1.74902 11.7186 1.71042 10.1801 1.71378C8.63818 1.71011 7.22201 1.75361 5.84643 1.83738C4.86987 1.89673 3.82476 2.31555 3.1311 2.88104C2.48992 3.40396 1.92959 4.3238 1.69994 5.22376C1.47228 6.11609 1.45916 7.07389 1.4465 8.0004C1.43658 8.72626 1.4262 9.58579 1.42407 10.4578C1.4262 11.3261 1.43658 12.1857 1.4465 12.9116C1.45916 13.838 1.47228 14.7959 1.69994 15.6881C1.92959 16.588 2.37118 17.3095 3.01235 17.8324C3.70602 18.3979 4.86987 19.0386 5.84643 19.098C7.22201 19.1817 8.63849 19.2208 10.1764 19.217ZM10.1392 15.3388C7.44693 15.3388 5.25638 13.1484 5.25638 10.456C5.25638 7.76359 7.44693 5.57319 10.1392 5.57319C12.8316 5.57319 15.022 7.76359 15.022 10.456C15.022 13.1484 12.8316 15.3388 10.1392 15.3388ZM10.1801 6.71013C7.98469 6.71013 6.43966 8.25516 6.43966 10.4542C6.43966 12.2849 7.82401 14.2169 10.1585 14.2169C11.9894 14.2169 13.8929 12.4824 13.8929 10.4542C13.8929 8.62342 12.4962 6.71013 10.1801 6.71013ZM15.5689 4.01069C14.9218 4.01069 14.397 4.53528 14.397 5.18256C14.397 5.82984 14.9218 6.35444 15.5689 6.35444C16.2162 6.35444 16.7408 5.82984 16.7408 5.18256C16.7408 4.53528 16.2162 4.01069 15.5689 4.01069Z" fill="#282525"/>
</g>
<defs>
<clipPath id="clip0_1585_9518">
<rect width="20" height="20" fill="white" transform="translate(0.178711 0.456055)"/>
</clipPath>
</defs>
</svg>
