<svg width="20" height="21" viewBox="0 0 20 21" fill="none" xmlns="http://www.w3.org/2000/svg">
<g clip-path="url(#clip0_1585_9521)">
<path d="M4.70306 6.732H0.9375C0.613861 6.732 0.351562 6.99445 0.351562 7.31793V19.8701C0.351562 20.1938 0.613861 20.4561 0.9375 20.4561H4.70306C5.0267 20.4561 5.289 20.1938 5.289 19.8701V7.31793C5.289 6.99445 5.0267 6.732 4.70306 6.732ZM4.11713 19.2842H1.52344V7.90387H4.11713V19.2842Z" fill="#282525"/>
<path d="M2.82043 0.456055C1.45905 0.456055 0.351562 1.56354 0.351562 2.92462C0.351562 4.28601 1.45905 5.39334 2.82043 5.39334C4.18167 5.39334 5.289 4.28586 5.289 2.92462C5.289 1.56354 4.18167 0.456055 2.82043 0.456055ZM2.82043 4.22147C2.10526 4.22147 1.52344 3.6398 1.52344 2.92462C1.52344 2.20959 2.10526 1.62793 2.82043 1.62793C3.53546 1.62793 4.11713 2.20959 4.11713 2.92462C4.11713 3.6398 3.53546 4.22147 2.82043 4.22147Z" fill="#282525"/>
<path d="M14.1176 6.64914C13.2269 6.64914 12.3491 6.86383 11.563 7.26544C11.5363 6.96652 11.2852 6.732 10.9793 6.732H7.21344C6.88995 6.732 6.6275 6.99445 6.6275 7.31793V19.8701C6.6275 20.1938 6.88995 20.4561 7.21344 20.4561H10.9793C11.3029 20.4561 11.5652 20.1938 11.5652 19.8701V12.9664C11.5652 12.0784 12.2879 11.3559 13.176 11.3559C14.064 11.3559 14.7864 12.0784 14.7864 12.9664V19.8701C14.7864 20.1938 15.0488 20.4561 15.3723 20.4561H19.138C19.4617 20.4561 19.724 20.1938 19.724 19.8701V12.2555C19.724 9.16409 17.209 6.64914 14.1176 6.64914ZM18.5521 19.2842H15.9584V12.9664C15.9584 11.4322 14.7102 10.184 13.1761 10.184C11.6417 10.184 10.3934 11.4322 10.3934 12.9664V19.2842H7.79953V7.90387H10.3934V8.33676C10.3934 8.56213 10.5226 8.76752 10.7259 8.86502C10.929 8.96253 11.17 8.93475 11.346 8.79392C12.1394 8.15747 13.098 7.82102 14.1176 7.82102C16.5628 7.82102 18.5521 9.8103 18.5521 12.2555V19.2842Z" fill="#282525"/>
</g>
<defs>
<clipPath id="clip0_1585_9521">
<rect width="20" height="20" fill="white" transform="translate(0 0.456055)"/>
</clipPath>
</defs>
</svg>
